<?xml version="1.0" standalone="no"?>
<!DOCTYPE svg PUBLIC "-//W3C//DTD SVG 20010904//EN"
 "http://www.w3.org/TR/2001/REC-SVG-20010904/DTD/svg10.dtd">
<svg version="1.0" xmlns="http://www.w3.org/2000/svg"
 width="291.000000pt" height="24.000000pt" viewBox="0 0 291.000000 24.000000"
 preserveAspectRatio="xMidYMid meet">

<g transform="translate(0.000000,24.000000) scale(0.100000,-0.100000)"
fill="#000000" stroke="none">
<path d="M2205 225 c-33 -9 -59 -24 -79 -47 l-30 -33 32 -3 c19 -2 52 6 78 19
37 18 57 21 106 16 89 -8 99 -27 14 -27 l-67 0 3 -27 c3 -27 6 -28 68 -33 64
-6 64 -6 35 -19 -38 -16 -137 -9 -171 14 -15 9 -40 15 -61 13 l-36 -3 27 -32
c66 -79 258 -83 333 -8 107 107 -63 221 -252 170z"/>
<path d="M2625 225 c-59 -16 -105 -61 -105 -104 0 -121 259 -165 360 -62 l35
36 -33 3 c-19 2 -51 -5 -76 -17 -46 -23 -101 -27 -158 -11 -43 12 -59 35 -47
67 16 44 158 56 216 18 14 -10 39 -15 61 -13 l37 3 -35 36 c-54 55 -151 72
-255 44z"/>
<path d="M73 162 c37 -37 67 -73 67 -80 0 -8 -16 -12 -45 -12 -44 0 -45 -1
-45 -31 l0 -31 60 4 c70 5 84 16 180 139 l61 79 -45 0 c-40 0 -48 -4 -80 -42
l-35 -43 -43 43 c-40 38 -49 42 -93 42 l-49 0 67 -68z"/>
<path d="M390 178 c0 -68 -17 -102 -53 -106 -23 -3 -27 -8 -27 -33 0 -26 3
-29 35 -29 53 0 94 42 103 105 l7 50 68 3 67 3 0 -81 0 -80 35 0 35 0 0 110 0
110 -135 0 -135 0 0 -52z"/>
<path d="M720 119 l0 -111 136 4 c135 3 136 3 160 31 25 30 31 66 14 98 -19
35 -64 49 -155 49 -78 0 -85 2 -85 20 0 16 -7 20 -35 20 l-35 0 0 -111z m235
-19 c0 -24 -2 -25 -82 -28 l-83 -3 0 31 0 31 83 -3 c80 -3 82 -4 82 -28z"/>
<path d="M1050 200 l0 -30 60 0 60 0 0 -80 0 -80 35 0 34 0 3 78 3 77 63 3
c61 3 62 3 62 32 l0 30 -160 0 -160 0 0 -30z"/>
<path d="M1420 120 l0 -110 35 0 c28 0 35 4 35 20 0 18 7 20 80 20 98 0 142
16 159 59 11 25 11 37 1 61 -21 50 -54 60 -190 60 l-120 0 0 -110z m234 34
c12 -32 -13 -44 -90 -44 l-74 0 0 30 0 30 79 0 c64 0 80 -3 85 -16z"/>
<path d="M1790 125 c-38 -57 -70 -107 -70 -110 0 -3 17 -5 38 -5 26 0 45 7 57
20 15 17 31 20 101 20 72 0 85 -3 97 -21 12 -16 23 -20 56 -17 l41 3 -71 108
-72 107 -53 0 -54 0 -70 -105z m149 20 l20 -35 -44 0 c-25 0 -45 3 -45 6 0 7
40 64 45 64 2 0 12 -16 24 -35z"/>
</g>
</svg>
